<mxfile host="app.diagrams.net" modified="2023-04-27T15:01:40.009Z" agent="Mozilla/5.0 (Windows NT 10.0; Win64; x64; rv:109.0) Gecko/20100101 Firefox/112.0" etag="5D9-X1D8JjKUt62K3d_4" version="21.2.3" type="device">
  <diagram name="Page-1" id="1rfseUxClpkkoTdwEQ6H">
    <mxGraphModel dx="1434" dy="774" grid="1" gridSize="10" guides="1" tooltips="1" connect="1" arrows="1" fold="1" page="1" pageScale="1" pageWidth="1200" pageHeight="1600" math="0" shadow="0">
      <root>
        <mxCell id="0" />
        <mxCell id="1" parent="0" />
        <mxCell id="x7yo1bF5Ih4Q695Gc91e-78" value="" style="edgeStyle=orthogonalEdgeStyle;rounded=0;orthogonalLoop=1;jettySize=auto;html=1;" parent="1" source="x7yo1bF5Ih4Q695Gc91e-1" target="x7yo1bF5Ih4Q695Gc91e-48" edge="1">
          <mxGeometry relative="1" as="geometry" />
        </mxCell>
        <mxCell id="x7yo1bF5Ih4Q695Gc91e-1" value="&lt;div&gt;Start&lt;/div&gt;" style="strokeWidth=2;html=1;shape=mxgraph.flowchart.terminator;whiteSpace=wrap;" parent="1" vertex="1">
          <mxGeometry x="550" y="40" width="100" height="60" as="geometry" />
        </mxCell>
        <mxCell id="x7yo1bF5Ih4Q695Gc91e-21" value="&lt;div&gt;End&lt;/div&gt;" style="strokeWidth=2;html=1;shape=mxgraph.flowchart.terminator;whiteSpace=wrap;" parent="1" vertex="1">
          <mxGeometry x="550" y="1200" width="100" height="60" as="geometry" />
        </mxCell>
        <mxCell id="x7yo1bF5Ih4Q695Gc91e-79" value="" style="edgeStyle=orthogonalEdgeStyle;rounded=0;orthogonalLoop=1;jettySize=auto;html=1;" parent="1" source="x7yo1bF5Ih4Q695Gc91e-48" target="x7yo1bF5Ih4Q695Gc91e-49" edge="1">
          <mxGeometry relative="1" as="geometry" />
        </mxCell>
        <mxCell id="x7yo1bF5Ih4Q695Gc91e-48" value="&lt;div&gt;input&lt;/div&gt;&lt;div&gt;num&lt;br&gt;&lt;/div&gt;" style="shape=parallelogram;html=1;strokeWidth=2;perimeter=parallelogramPerimeter;whiteSpace=wrap;rounded=1;arcSize=12;size=0.23;" parent="1" vertex="1">
          <mxGeometry x="550" y="140" width="100" height="60" as="geometry" />
        </mxCell>
        <mxCell id="x7yo1bF5Ih4Q695Gc91e-80" value="" style="edgeStyle=orthogonalEdgeStyle;rounded=0;orthogonalLoop=1;jettySize=auto;html=1;" parent="1" source="x7yo1bF5Ih4Q695Gc91e-49" target="x7yo1bF5Ih4Q695Gc91e-50" edge="1">
          <mxGeometry relative="1" as="geometry" />
        </mxCell>
        <mxCell id="x7yo1bF5Ih4Q695Gc91e-49" value="row = 0" style="rounded=1;whiteSpace=wrap;html=1;absoluteArcSize=1;arcSize=14;strokeWidth=2;" parent="1" vertex="1">
          <mxGeometry x="550" y="240" width="100" height="60" as="geometry" />
        </mxCell>
        <mxCell id="x7yo1bF5Ih4Q695Gc91e-81" value="" style="edgeStyle=orthogonalEdgeStyle;rounded=0;orthogonalLoop=1;jettySize=auto;html=1;" parent="1" source="x7yo1bF5Ih4Q695Gc91e-50" target="x7yo1bF5Ih4Q695Gc91e-51" edge="1">
          <mxGeometry relative="1" as="geometry" />
        </mxCell>
        <mxCell id="BGIkh-STLHpQM4IUwbAM-15" style="edgeStyle=orthogonalEdgeStyle;rounded=0;orthogonalLoop=1;jettySize=auto;html=1;exitX=0;exitY=0.5;exitDx=0;exitDy=0;exitPerimeter=0;entryX=0;entryY=0.5;entryDx=0;entryDy=0;entryPerimeter=0;" edge="1" parent="1" source="x7yo1bF5Ih4Q695Gc91e-50" target="x7yo1bF5Ih4Q695Gc91e-21">
          <mxGeometry relative="1" as="geometry">
            <Array as="points">
              <mxPoint x="300" y="390" />
              <mxPoint x="300" y="1230" />
            </Array>
          </mxGeometry>
        </mxCell>
        <mxCell id="x7yo1bF5Ih4Q695Gc91e-50" value="row &amp;lt; num * 2 - 1" style="strokeWidth=2;html=1;shape=mxgraph.flowchart.decision;whiteSpace=wrap;" parent="1" vertex="1">
          <mxGeometry x="550" y="340" width="100" height="100" as="geometry" />
        </mxCell>
        <mxCell id="x7yo1bF5Ih4Q695Gc91e-82" value="" style="edgeStyle=orthogonalEdgeStyle;rounded=0;orthogonalLoop=1;jettySize=auto;html=1;" parent="1" source="x7yo1bF5Ih4Q695Gc91e-51" target="x7yo1bF5Ih4Q695Gc91e-52" edge="1">
          <mxGeometry relative="1" as="geometry" />
        </mxCell>
        <mxCell id="x7yo1bF5Ih4Q695Gc91e-51" value="col = 0" style="rounded=1;whiteSpace=wrap;html=1;absoluteArcSize=1;arcSize=14;strokeWidth=2;" parent="1" vertex="1">
          <mxGeometry x="550" y="480" width="100" height="60" as="geometry" />
        </mxCell>
        <mxCell id="x7yo1bF5Ih4Q695Gc91e-66" value="" style="edgeStyle=orthogonalEdgeStyle;rounded=0;orthogonalLoop=1;jettySize=auto;html=1;" parent="1" source="x7yo1bF5Ih4Q695Gc91e-52" target="x7yo1bF5Ih4Q695Gc91e-53" edge="1">
          <mxGeometry relative="1" as="geometry" />
        </mxCell>
        <mxCell id="x7yo1bF5Ih4Q695Gc91e-83" style="edgeStyle=orthogonalEdgeStyle;rounded=0;orthogonalLoop=1;jettySize=auto;html=1;exitX=0;exitY=0.5;exitDx=0;exitDy=0;exitPerimeter=0;entryX=0;entryY=0.5;entryDx=0;entryDy=0;" parent="1" source="x7yo1bF5Ih4Q695Gc91e-52" target="x7yo1bF5Ih4Q695Gc91e-73" edge="1">
          <mxGeometry relative="1" as="geometry">
            <Array as="points">
              <mxPoint x="340" y="630" />
              <mxPoint x="340" y="1130" />
            </Array>
          </mxGeometry>
        </mxCell>
        <mxCell id="x7yo1bF5Ih4Q695Gc91e-52" value="col &amp;lt; num" style="strokeWidth=2;html=1;shape=mxgraph.flowchart.decision;whiteSpace=wrap;" parent="1" vertex="1">
          <mxGeometry x="550" y="580" width="100" height="100" as="geometry" />
        </mxCell>
        <mxCell id="x7yo1bF5Ih4Q695Gc91e-60" style="edgeStyle=orthogonalEdgeStyle;rounded=0;orthogonalLoop=1;jettySize=auto;html=1;exitX=0;exitY=0.5;exitDx=0;exitDy=0;exitPerimeter=0;" parent="1" source="x7yo1bF5Ih4Q695Gc91e-53" target="x7yo1bF5Ih4Q695Gc91e-54" edge="1">
          <mxGeometry relative="1" as="geometry" />
        </mxCell>
        <mxCell id="x7yo1bF5Ih4Q695Gc91e-61" style="edgeStyle=orthogonalEdgeStyle;rounded=0;orthogonalLoop=1;jettySize=auto;html=1;exitX=1;exitY=0.5;exitDx=0;exitDy=0;exitPerimeter=0;entryX=0.5;entryY=0;entryDx=0;entryDy=0;entryPerimeter=0;" parent="1" source="x7yo1bF5Ih4Q695Gc91e-53" target="x7yo1bF5Ih4Q695Gc91e-57" edge="1">
          <mxGeometry relative="1" as="geometry" />
        </mxCell>
        <mxCell id="x7yo1bF5Ih4Q695Gc91e-53" value="row &amp;lt; num" style="strokeWidth=2;html=1;shape=mxgraph.flowchart.decision;whiteSpace=wrap;" parent="1" vertex="1">
          <mxGeometry x="550" y="720" width="100" height="100" as="geometry" />
        </mxCell>
        <mxCell id="x7yo1bF5Ih4Q695Gc91e-62" style="edgeStyle=orthogonalEdgeStyle;rounded=0;orthogonalLoop=1;jettySize=auto;html=1;exitX=0;exitY=0.5;exitDx=0;exitDy=0;exitPerimeter=0;" parent="1" source="x7yo1bF5Ih4Q695Gc91e-54" target="x7yo1bF5Ih4Q695Gc91e-56" edge="1">
          <mxGeometry relative="1" as="geometry">
            <Array as="points">
              <mxPoint x="410" y="910" />
            </Array>
          </mxGeometry>
        </mxCell>
        <mxCell id="x7yo1bF5Ih4Q695Gc91e-63" style="edgeStyle=orthogonalEdgeStyle;rounded=0;orthogonalLoop=1;jettySize=auto;html=1;exitX=1;exitY=0.5;exitDx=0;exitDy=0;exitPerimeter=0;entryX=0.5;entryY=0;entryDx=0;entryDy=0;" parent="1" source="x7yo1bF5Ih4Q695Gc91e-54" target="x7yo1bF5Ih4Q695Gc91e-55" edge="1">
          <mxGeometry relative="1" as="geometry">
            <Array as="points">
              <mxPoint x="530" y="910" />
            </Array>
          </mxGeometry>
        </mxCell>
        <mxCell id="x7yo1bF5Ih4Q695Gc91e-54" value="&lt;div&gt;col &amp;lt;&lt;/div&gt;&lt;div&gt;num - row - 1&lt;/div&gt;" style="strokeWidth=2;html=1;shape=mxgraph.flowchart.decision;whiteSpace=wrap;" parent="1" vertex="1">
          <mxGeometry x="420" y="860" width="100" height="100" as="geometry" />
        </mxCell>
        <mxCell id="x7yo1bF5Ih4Q695Gc91e-70" style="edgeStyle=orthogonalEdgeStyle;rounded=0;orthogonalLoop=1;jettySize=auto;html=1;exitX=0.5;exitY=1;exitDx=0;exitDy=0;" parent="1" source="x7yo1bF5Ih4Q695Gc91e-55" edge="1">
          <mxGeometry relative="1" as="geometry">
            <mxPoint x="859.9999999999998" y="660" as="targetPoint" />
          </mxGeometry>
        </mxCell>
        <mxCell id="x7yo1bF5Ih4Q695Gc91e-55" value="print&lt;br&gt;&quot;*&quot;" style="shape=parallelogram;html=1;strokeWidth=2;perimeter=parallelogramPerimeter;whiteSpace=wrap;rounded=1;arcSize=12;size=0.23;" parent="1" vertex="1">
          <mxGeometry x="480" y="1000" width="100" height="60" as="geometry" />
        </mxCell>
        <mxCell id="x7yo1bF5Ih4Q695Gc91e-71" style="edgeStyle=orthogonalEdgeStyle;rounded=0;orthogonalLoop=1;jettySize=auto;html=1;exitX=0.5;exitY=1;exitDx=0;exitDy=0;" parent="1" source="x7yo1bF5Ih4Q695Gc91e-56" edge="1">
          <mxGeometry relative="1" as="geometry">
            <mxPoint x="859.9999999999998" y="660" as="targetPoint" />
          </mxGeometry>
        </mxCell>
        <mxCell id="x7yo1bF5Ih4Q695Gc91e-56" value="print&lt;br&gt;&quot; &quot;" style="shape=parallelogram;html=1;strokeWidth=2;perimeter=parallelogramPerimeter;whiteSpace=wrap;rounded=1;arcSize=12;size=0.23;" parent="1" vertex="1">
          <mxGeometry x="360" y="1000" width="100" height="60" as="geometry" />
        </mxCell>
        <mxCell id="x7yo1bF5Ih4Q695Gc91e-64" style="edgeStyle=orthogonalEdgeStyle;rounded=0;orthogonalLoop=1;jettySize=auto;html=1;exitX=0;exitY=0.5;exitDx=0;exitDy=0;exitPerimeter=0;" parent="1" source="x7yo1bF5Ih4Q695Gc91e-57" target="x7yo1bF5Ih4Q695Gc91e-59" edge="1">
          <mxGeometry relative="1" as="geometry">
            <Array as="points">
              <mxPoint x="670" y="910" />
            </Array>
          </mxGeometry>
        </mxCell>
        <mxCell id="x7yo1bF5Ih4Q695Gc91e-65" style="edgeStyle=orthogonalEdgeStyle;rounded=0;orthogonalLoop=1;jettySize=auto;html=1;exitX=1;exitY=0.5;exitDx=0;exitDy=0;exitPerimeter=0;" parent="1" source="x7yo1bF5Ih4Q695Gc91e-57" target="x7yo1bF5Ih4Q695Gc91e-58" edge="1">
          <mxGeometry relative="1" as="geometry">
            <Array as="points">
              <mxPoint x="790" y="910" />
            </Array>
          </mxGeometry>
        </mxCell>
        <mxCell id="x7yo1bF5Ih4Q695Gc91e-57" value="col &amp;gt; row - num" style="strokeWidth=2;html=1;shape=mxgraph.flowchart.decision;whiteSpace=wrap;" parent="1" vertex="1">
          <mxGeometry x="680" y="860" width="100" height="100" as="geometry" />
        </mxCell>
        <mxCell id="x7yo1bF5Ih4Q695Gc91e-68" style="edgeStyle=orthogonalEdgeStyle;rounded=0;orthogonalLoop=1;jettySize=auto;html=1;exitX=0.5;exitY=1;exitDx=0;exitDy=0;entryX=0.5;entryY=1;entryDx=0;entryDy=0;" parent="1" source="x7yo1bF5Ih4Q695Gc91e-58" target="x7yo1bF5Ih4Q695Gc91e-67" edge="1">
          <mxGeometry relative="1" as="geometry" />
        </mxCell>
        <mxCell id="x7yo1bF5Ih4Q695Gc91e-58" value="print&lt;br&gt;&quot; &quot;" style="shape=parallelogram;html=1;strokeWidth=2;perimeter=parallelogramPerimeter;whiteSpace=wrap;rounded=1;arcSize=12;size=0.23;" parent="1" vertex="1">
          <mxGeometry x="740" y="1000" width="100" height="60" as="geometry" />
        </mxCell>
        <mxCell id="x7yo1bF5Ih4Q695Gc91e-69" style="edgeStyle=orthogonalEdgeStyle;rounded=0;orthogonalLoop=1;jettySize=auto;html=1;exitX=0.5;exitY=1;exitDx=0;exitDy=0;entryX=0.5;entryY=1;entryDx=0;entryDy=0;" parent="1" source="x7yo1bF5Ih4Q695Gc91e-59" target="x7yo1bF5Ih4Q695Gc91e-67" edge="1">
          <mxGeometry relative="1" as="geometry" />
        </mxCell>
        <mxCell id="x7yo1bF5Ih4Q695Gc91e-59" value="print&lt;br&gt;&quot;*&quot;" style="shape=parallelogram;html=1;strokeWidth=2;perimeter=parallelogramPerimeter;whiteSpace=wrap;rounded=1;arcSize=12;size=0.23;" parent="1" vertex="1">
          <mxGeometry x="620" y="1000" width="100" height="60" as="geometry" />
        </mxCell>
        <mxCell id="x7yo1bF5Ih4Q695Gc91e-72" style="edgeStyle=orthogonalEdgeStyle;rounded=0;orthogonalLoop=1;jettySize=auto;html=1;exitX=0;exitY=0.5;exitDx=0;exitDy=0;entryX=1;entryY=0.5;entryDx=0;entryDy=0;entryPerimeter=0;" parent="1" source="x7yo1bF5Ih4Q695Gc91e-67" target="x7yo1bF5Ih4Q695Gc91e-52" edge="1">
          <mxGeometry relative="1" as="geometry" />
        </mxCell>
        <mxCell id="x7yo1bF5Ih4Q695Gc91e-67" value="col++" style="rounded=1;whiteSpace=wrap;html=1;absoluteArcSize=1;arcSize=14;strokeWidth=2;" parent="1" vertex="1">
          <mxGeometry x="810" y="600" width="100" height="60" as="geometry" />
        </mxCell>
        <mxCell id="x7yo1bF5Ih4Q695Gc91e-75" style="edgeStyle=orthogonalEdgeStyle;rounded=0;orthogonalLoop=1;jettySize=auto;html=1;exitX=1;exitY=0.5;exitDx=0;exitDy=0;entryX=0.5;entryY=1;entryDx=0;entryDy=0;" parent="1" source="x7yo1bF5Ih4Q695Gc91e-73" target="x7yo1bF5Ih4Q695Gc91e-74" edge="1">
          <mxGeometry relative="1" as="geometry" />
        </mxCell>
        <mxCell id="x7yo1bF5Ih4Q695Gc91e-73" value="print&lt;br&gt;&quot;\n&quot;" style="shape=parallelogram;html=1;strokeWidth=2;perimeter=parallelogramPerimeter;whiteSpace=wrap;rounded=1;arcSize=12;size=0.23;" parent="1" vertex="1">
          <mxGeometry x="550" y="1100" width="100" height="60" as="geometry" />
        </mxCell>
        <mxCell id="x7yo1bF5Ih4Q695Gc91e-76" style="edgeStyle=orthogonalEdgeStyle;rounded=0;orthogonalLoop=1;jettySize=auto;html=1;exitX=0;exitY=0.5;exitDx=0;exitDy=0;entryX=1;entryY=0.5;entryDx=0;entryDy=0;entryPerimeter=0;" parent="1" source="x7yo1bF5Ih4Q695Gc91e-74" target="x7yo1bF5Ih4Q695Gc91e-50" edge="1">
          <mxGeometry relative="1" as="geometry" />
        </mxCell>
        <mxCell id="x7yo1bF5Ih4Q695Gc91e-74" value="row++" style="rounded=1;whiteSpace=wrap;html=1;absoluteArcSize=1;arcSize=14;strokeWidth=2;" parent="1" vertex="1">
          <mxGeometry x="890" y="360" width="100" height="60" as="geometry" />
        </mxCell>
        <mxCell id="BGIkh-STLHpQM4IUwbAM-1" value="True" style="text;html=1;strokeColor=none;fillColor=none;align=center;verticalAlign=middle;whiteSpace=wrap;rounded=0;" vertex="1" parent="1">
          <mxGeometry x="600" y="680" width="60" height="30" as="geometry" />
        </mxCell>
        <mxCell id="BGIkh-STLHpQM4IUwbAM-2" value="True" style="text;html=1;strokeColor=none;fillColor=none;align=center;verticalAlign=middle;whiteSpace=wrap;rounded=0;" vertex="1" parent="1">
          <mxGeometry x="600" y="440" width="60" height="30" as="geometry" />
        </mxCell>
        <mxCell id="BGIkh-STLHpQM4IUwbAM-3" value="True" style="text;html=1;strokeColor=none;fillColor=none;align=center;verticalAlign=middle;whiteSpace=wrap;rounded=0;" vertex="1" parent="1">
          <mxGeometry x="490" y="740" width="60" height="30" as="geometry" />
        </mxCell>
        <mxCell id="BGIkh-STLHpQM4IUwbAM-4" value="False" style="text;html=1;strokeColor=none;fillColor=none;align=center;verticalAlign=middle;whiteSpace=wrap;rounded=0;" vertex="1" parent="1">
          <mxGeometry x="650" y="740" width="60" height="30" as="geometry" />
        </mxCell>
        <mxCell id="BGIkh-STLHpQM4IUwbAM-6" value="False" style="text;html=1;strokeColor=none;fillColor=none;align=center;verticalAlign=middle;whiteSpace=wrap;rounded=0;" vertex="1" parent="1">
          <mxGeometry x="490" y="600" width="60" height="30" as="geometry" />
        </mxCell>
        <mxCell id="BGIkh-STLHpQM4IUwbAM-10" value="True" style="text;html=1;strokeColor=none;fillColor=none;align=center;verticalAlign=middle;whiteSpace=wrap;rounded=0;" vertex="1" parent="1">
          <mxGeometry x="380" y="880" width="60" height="30" as="geometry" />
        </mxCell>
        <mxCell id="BGIkh-STLHpQM4IUwbAM-12" value="True" style="text;html=1;strokeColor=none;fillColor=none;align=center;verticalAlign=middle;whiteSpace=wrap;rounded=0;" vertex="1" parent="1">
          <mxGeometry x="640" y="880" width="60" height="30" as="geometry" />
        </mxCell>
        <mxCell id="BGIkh-STLHpQM4IUwbAM-13" value="False" style="text;html=1;strokeColor=none;fillColor=none;align=center;verticalAlign=middle;whiteSpace=wrap;rounded=0;" vertex="1" parent="1">
          <mxGeometry x="500" y="880" width="60" height="30" as="geometry" />
        </mxCell>
        <mxCell id="BGIkh-STLHpQM4IUwbAM-14" value="False" style="text;html=1;strokeColor=none;fillColor=none;align=center;verticalAlign=middle;whiteSpace=wrap;rounded=0;" vertex="1" parent="1">
          <mxGeometry x="760" y="880" width="60" height="30" as="geometry" />
        </mxCell>
        <mxCell id="BGIkh-STLHpQM4IUwbAM-16" value="False" style="text;html=1;strokeColor=none;fillColor=none;align=center;verticalAlign=middle;whiteSpace=wrap;rounded=0;" vertex="1" parent="1">
          <mxGeometry x="490" y="360" width="60" height="30" as="geometry" />
        </mxCell>
      </root>
    </mxGraphModel>
  </diagram>
</mxfile>
